<svg width="48" height="48" viewBox="0 0 48 48" fill="none" xmlns="http://www.w3.org/2000/svg">
<rect width="48" height="48" rx="12" fill="white"/>
<path fill-rule="evenodd" clip-rule="evenodd" d="M25.1673 12.1531C20.9541 12.585 17.5434 15.2196 16.7027 18.6918C16.6385 18.957 16.595 19.183 16.6061 19.1941C16.6172 19.2052 16.7804 19.1504 16.9687 19.0724C17.7725 18.7395 18.8648 18.4377 19.7315 18.309L20.0881 18.2561L20.293 17.9446C20.7709 17.2175 21.6083 16.5 22.5415 16.0176C25.0431 14.7246 28.2946 14.8728 30.5972 16.3848C32.0859 17.3623 32.9555 18.8089 32.9682 20.3291C32.9746 21.1065 32.8804 21.4896 32.4604 22.3928C32.1986 22.9557 31.9681 23.5877 31.9681 23.7427C31.9681 23.7924 32.0604 24.0314 32.1733 24.2738C32.7399 25.4909 33.0567 27.0443 32.9733 28.197L32.9419 28.6308H34.4768C35.6859 28.6308 36.0068 28.6184 35.9884 28.5722C35.9756 28.54 35.7301 27.9831 35.4427 27.3347C34.8476 25.9921 34.7585 25.6778 34.7999 25.0662C34.8342 24.5582 34.9147 24.2902 35.2505 23.5654C35.7748 22.4335 35.9462 21.7567 35.987 20.6574C36.0171 19.8455 35.9676 19.3445 35.7859 18.6242C35.4725 17.3815 34.7933 16.1892 33.8241 15.1805C32.2399 13.5316 30.0432 12.4803 27.58 12.1922C27.0353 12.1285 25.6297 12.1057 25.1673 12.1531ZM20.5474 19.6726C19.4984 19.803 18.5023 20.0424 17.7077 20.3551C15.446 21.2451 13.7147 22.7549 12.7626 24.6676C12.4275 25.3409 12.269 25.7817 12.1165 26.4647C12.0305 26.8494 12.015 27.0661 12.015 27.8804C12.015 28.6955 12.0305 28.9112 12.1167 29.2975C12.2537 29.9109 12.4149 30.37 12.739 31.0697C13.0748 31.7946 13.1553 32.0626 13.1896 32.5706C13.231 33.1822 13.1419 33.4965 12.5468 34.8391C12.2595 35.4874 12.0135 36.0452 12.0003 36.0785C11.9807 36.1279 12.9938 36.1359 17.4813 36.1212C23.4853 36.1017 23.1659 36.1155 24.389 35.8242C28.1925 34.9185 30.9949 32.1316 31.4491 28.8033C31.5133 28.3327 31.5133 27.4281 31.4491 26.9574C31.0958 24.3688 29.3429 22.0863 26.6916 20.7627C25.706 20.2707 24.7841 19.9729 23.5961 19.7627C22.9658 19.6512 21.1513 19.5976 20.5474 19.6726ZM17.6393 28.7714C18.1175 29.0669 18.0615 29.7882 17.5409 30.0402C17.1772 30.2162 16.7689 30.0675 16.5875 29.693C16.4636 29.4369 16.4652 29.3103 16.5959 29.0511C16.7956 28.6552 17.2529 28.5326 17.6393 28.7714ZM22.1419 28.7714C22.6201 29.0669 22.5641 29.7882 22.0435 30.0402C21.6799 30.2162 21.2715 30.0675 21.0902 29.693C20.9662 29.4369 20.9678 29.3103 21.0985 29.0511C21.2983 28.6552 21.7555 28.5326 22.1419 28.7714ZM26.6445 28.7714C27.1227 29.0669 27.0668 29.7882 26.5461 30.0402C26.1825 30.2162 25.7741 30.0675 25.5928 29.693C25.4688 29.4369 25.4704 29.3103 25.6012 29.0511C25.8009 28.6552 26.2581 28.5326 26.6445 28.7714Z" fill="#28293A"/>
</svg>
