<svg width="48" height="48" viewBox="0 0 48 48" fill="none" xmlns="http://www.w3.org/2000/svg">
<rect width="48" height="48" rx="12" fill="white"/>
<path fill-rule="evenodd" clip-rule="evenodd" d="M17.4496 12.1534C14.7457 12.431 12.5987 14.3988 12.0821 17.0729C11.972 17.6424 11.9727 18.6575 12.0836 19.2375C12.317 20.4587 12.9198 21.5718 13.8167 22.4374C14.3497 22.9519 14.7407 23.2309 15.3508 23.5321C16.6166 24.1569 18.1416 24.3211 19.4992 23.9786L19.6289 23.9459C19.8385 23.895 20.3074 23.7536 20.6824 23.559C20.7228 23.5353 20.7718 23.5083 20.8315 23.4754C21.8926 22.8902 22.7592 22.0308 23.3316 20.9957C23.3577 20.9484 23.3814 20.9067 23.4033 20.8698C23.6019 20.4967 23.762 19.9959 23.822 19.7714L23.8567 19.6345C24.1912 18.313 24.0422 16.7999 23.4559 15.5632C22.9156 14.4236 21.8467 13.3318 20.716 12.7646C19.7527 12.2814 18.495 12.046 17.4496 12.1534ZM24.8302 27.6321V28.4949L24.8307 30.5423C24.8312 32.5893 24.8312 32.5898 24.9488 32.8386C25.0135 32.9755 25.1198 33.1353 25.1852 33.1937C25.3203 33.3145 29.7567 35.9279 30.0026 36.0316C30.2538 36.1375 30.6532 36.1156 30.9392 35.9803C31.3176 35.8013 35.5076 33.3236 35.6449 33.1976C35.7109 33.1371 35.8178 32.9755 35.8825 32.8386L36 32.5897V29.7274V26.8651L35.8825 26.6162C35.8178 26.4793 35.7114 26.319 35.646 26.2601C35.5108 26.1381 31.0752 23.5253 30.8291 23.4227C30.602 23.328 30.1782 23.3408 29.9419 23.4495C29.8321 23.4999 29.454 23.7123 29.1015 23.9213C28.749 24.1304 28.4517 24.3014 28.4407 24.3014L27.4951 24.8423C27.442 24.8915 26.9272 25.207 26.3513 25.5436C25.7753 25.8802 25.2505 26.2032 25.1852 26.2614C24.9624 26.4599 24.8313 26.8251 24.8307 27.2486L24.8302 27.6321ZM24.545 13.1149C23.7161 13.9423 23.6334 14.0404 23.6334 14.1961C23.6334 14.3518 23.7161 14.4499 24.545 15.2773C25.355 16.0859 25.4747 16.1873 25.6194 16.1873C25.8357 16.1873 26.0271 15.9982 26.0271 15.7846C26.0271 15.6522 25.9517 15.549 25.5658 15.1537L25.1045 14.6812L25.4142 14.7147C25.5845 14.7331 25.9885 14.8128 26.3119 14.8917C29.2255 15.603 31.6538 17.662 32.8209 20.411C33.2624 21.4509 33.4709 22.3338 33.5691 23.5796C33.6214 24.2438 33.6403 24.3387 33.74 24.4383C33.8915 24.5897 34.1253 24.5853 34.2827 24.4281C34.3926 24.3185 34.4052 24.2644 34.4052 23.9035C34.4052 22.3147 33.8891 20.4765 33.0236 18.9822C32.1471 17.4689 30.8334 16.1356 29.3577 15.2616C28.5459 14.7807 27.7075 14.4186 26.8499 14.1782C26.3544 14.0392 25.3464 13.8476 25.1111 13.8476C24.9673 13.8476 24.984 13.8239 25.4939 13.3075C25.9474 12.848 26.0271 12.7436 26.0271 12.6083C26.0271 12.3939 25.8361 12.2049 25.6194 12.2049C25.4747 12.2049 25.355 12.3063 24.545 13.1149ZM18.3012 13.9434L18.4469 14.0889V14.7398V15.3908H19.0991H19.7512L19.897 15.5363C20.0814 15.7203 20.0814 15.8577 19.897 16.0418L19.7512 16.1873H18.4236H17.0959L16.9735 16.3095C16.8585 16.4243 16.8511 16.4644 16.8511 16.976C16.8511 17.0142 16.851 17.0506 16.8508 17.0851C16.8497 17.3652 16.8491 17.5277 16.9287 17.6238C17.0386 17.7568 17.3019 17.7629 17.929 17.7775C17.985 17.7788 18.0439 17.7801 18.1058 17.7817C19.0663 17.8054 19.1895 17.8183 19.3695 17.914C19.6046 18.0389 19.7972 18.2354 19.9215 18.4772C20.0554 18.7375 20.0838 19.7045 19.9692 20.0982C19.8116 20.6393 19.3288 20.9661 18.6872 20.9661H18.4469V21.6171V22.2681L18.3012 22.4136C18.221 22.4936 18.1071 22.5591 18.048 22.5591C17.9889 22.5591 17.875 22.4936 17.7948 22.4136L17.649 22.2681V21.6171V20.9661H16.9969H16.3447L16.199 20.8206C16.1188 20.7406 16.0532 20.6269 16.0532 20.5679C16.0532 20.5089 16.1188 20.3952 16.199 20.3152L16.3447 20.1697H17.6724H19L19.1224 20.0475C19.2375 19.9327 19.2449 19.8925 19.2449 19.381C19.2449 19.3427 19.245 19.3064 19.2451 19.2718C19.2462 18.9917 19.2469 18.8292 19.1673 18.7331C19.0573 18.6002 18.7941 18.5941 18.167 18.5796C18.111 18.5783 18.0521 18.5769 17.9902 18.5754C16.8397 18.5471 16.7513 18.5278 16.4351 18.235C16.1273 17.95 16.0781 17.7776 16.0781 16.9838C16.0781 16.375 16.0927 16.2347 16.1711 16.0877C16.4052 15.649 16.736 15.4454 17.2815 15.4042L17.649 15.3764V14.7327V14.0889L17.7948 13.9434C17.875 13.8633 17.9889 13.7978 18.048 13.7978C18.1071 13.7978 18.221 13.8633 18.3012 13.9434ZM13.7819 23.876C13.67 23.9876 13.6595 24.0369 13.6595 24.4459C13.6595 25.7692 14.053 27.3708 14.7064 28.7069C16.2705 31.905 19.344 34.0659 22.8974 34.4659L23.4332 34.5261L22.9348 35.0317C22.4966 35.4762 22.4365 35.5581 22.4365 35.71C22.4365 35.8869 22.5631 36.0498 22.7527 36.1169C22.9291 36.1793 23.1765 35.989 24.0004 35.1575C24.0801 35.0771 24.1541 35.0034 24.2224 34.9354C24.6181 34.5412 24.8206 34.3394 24.8226 34.1357C24.8246 33.9221 24.606 33.7063 24.1582 33.2643C24.0846 33.1916 24.0047 33.1128 23.9186 33.0268C23.1086 32.2182 22.9889 32.1168 22.8442 32.1168C22.6277 32.1168 22.4365 32.3059 22.4365 32.5198C22.4365 32.6531 22.5119 32.755 22.9103 33.1597C23.1708 33.4245 23.384 33.6522 23.384 33.6659C23.384 33.7086 22.6355 33.6164 22.0874 33.5062C19.6908 33.0244 17.4584 31.5243 16.0938 29.4785C15.1472 28.0594 14.64 26.5527 14.4899 24.7143C14.4321 24.0052 14.417 23.9317 14.3119 23.8467C14.1506 23.7163 13.9296 23.7286 13.7819 23.876ZM31.9154 26.9449C32.6951 27.3858 33.3947 27.8118 33.4701 27.8915L33.6073 28.0365V29.7274V31.4183L33.4701 31.5633C33.3197 31.7223 30.5461 33.3116 30.4191 33.3116C30.2974 33.3116 27.4631 31.6835 27.3362 31.5406C27.2245 31.415 27.224 31.4063 27.224 29.7254V28.0365L27.3611 27.8915C27.514 27.7299 30.2862 26.1433 30.4156 26.1433C30.4608 26.1433 31.1358 26.504 31.9154 26.9449ZM29.4433 27.5397C28.9222 27.8391 28.4895 28.1032 28.4816 28.1267C28.4737 28.1503 28.9069 28.4199 29.4442 28.7261L30.421 29.2826L31.4142 28.721C31.9604 28.4121 32.4074 28.1481 32.4074 28.1344C32.4074 28.1096 30.4426 26.9869 30.4087 26.9924C30.3988 26.994 29.9643 27.2403 29.4433 27.5397ZM28.0219 29.9603V31.1L29.2213 31.7844L30.4207 32.4689L31.615 31.7887L32.8093 31.1086V29.97C32.8093 29.3438 32.8014 28.8314 32.7916 28.8314C32.7818 28.8314 32.2616 29.1226 31.6355 29.4785C31.0095 29.8344 30.462 30.1256 30.419 30.1255C30.376 30.1254 29.8471 29.8431 29.2437 29.4982C28.6403 29.1532 28.1185 28.8597 28.0842 28.8459C28.0354 28.8262 28.0219 29.0684 28.0219 29.9603Z" fill="#28293A"/>
</svg>
