<svg width="48" height="48" viewBox="0 0 48 48" fill="none" xmlns="http://www.w3.org/2000/svg">
<rect width="48" height="48" rx="12" fill="white"/>
<path fill-rule="evenodd" clip-rule="evenodd" d="M23.9093 18.8698C13.0933 24.9537 11.9042 25.6338 12.0055 25.6781C12.0674 25.7052 13.7982 26.3491 15.8518 27.109L19.5855 28.4907L19.7264 28.3604C19.8039 28.2888 22.4038 25.8537 25.5039 22.9492C28.604 20.0446 31.1679 17.6512 31.2013 17.6305C31.2708 17.5875 31.4752 17.3099 26.33 24.2476L22.429 29.5077L22.428 32.8399C22.4274 34.6852 22.4448 36.1522 22.4671 36.1275C22.4891 36.103 23.4596 34.9704 24.6237 33.6107L26.7402 31.1385L29.4531 32.1438C30.9452 32.6967 32.1799 33.1329 32.1967 33.1131C32.2334 33.0701 35.9672 12.1524 35.9426 12.1278C35.9332 12.1185 30.5183 15.1524 23.9093 18.8698Z" fill="#28293A"/>
</svg>
